<svg version="1.2" xmlns="http://www.w3.org/2000/svg" viewBox="0 0 400 400" width="400" height="400">
	<title>New Project</title>
	<style>
		.s0 { fill: #000000 } 
	</style>
	<path id="&lt;Path&gt;" class="s0" d="m202.3 170.5c-10.1 0-18.6-4.8-23.5-8.5-2.6-2.6-3.2-6.3-0.5-9.5 2.7-2.6 6.4-3.2 9.6-0.5 1.6 1 13.9 11.6 28.3 0 2.7-2.1 7-2.1 9.6 1 2.2 2.7 2.2 6.9-1 9.5q-12.1 8-22.5 8z"/>
	<path id="&lt;Compound Path&gt;" fill-rule="evenodd" class="s0" d="m315 351.5h-229.1c-3.7 0-6.9-3.2-6.9-6.9v-77c0-16.9 10.7-31.7 27.2-37l30.5-10 15.4-5.8c1.6-0.5 3.8-0.5 5.4 0 1.6 0.5 2.7 2.1 3.7 3.7l17.1 50.7 18.7-19.6c1.1-1 3.2-2.1 4.8-2.1 1.6 0 3.7 0.5 4.8 2.1l19.2 19.6 16-50.7c0.6-1.6 1.7-3.2 3.3-3.7 1.6-1.1 3.7-1.1 5.3-0.5l45.4 15.8c16 5.8 26.1 20.6 26.1 36.9v77.1c0 4.2-3.2 7.4-6.9 7.4zm-222.7-13.2h215.8v-70.7c0-11.1-7-20.6-17.7-24.3l-38.9-13.7-17.1 54.3c-0.6 2.1-2.7 3.7-4.8 4.3-2.2 0.5-4.8 0-6.4-1.6l-22.5-22.7-21.3 22.7c-1.6 1.6-3.8 2.6-6.4 2.1-2.2-0.5-4.3-2.1-4.8-4.2l-18.7-54.4-9.1 3.7c0 0 0 0-0.5 0l-30.5 10c-10.6 3.7-18.1 13.7-18.1 24.8z"/>
	<path id="&lt;Path&gt;" class="s0" d="m278.2 351.5h-155.4c-3.8 0-7-3.2-7-6.9v-70.7c0-3.7 3.2-6.9 7-6.9 3.7 0 6.9 3.2 6.9 6.9v64.4h142v-64.4c0-3.7 3.3-6.9 7-6.9 3.7 0 6.9 3.2 6.9 6.9v70.7c-1 3.7-3.7 6.9-7.4 6.9z"/>
	<path id="&lt;Compound Path&gt;" fill-rule="evenodd" class="s0" d="m228.5 288.7c-1.6 0-3.7-0.5-4.8-2.1l-27.2-27.5c-2.2-2.1-2.7-5.8-0.6-8.4l34.2-48c1.1-1.6 3.2-2.7 5.3-2.7 2.2 0 4.3 0.5 5.4 2.1l12.3 14.3c1.6 1.6 2.1 4.2 1 6.3l-19.7 61.2c-0.6 2.1-2.7 3.7-4.8 4.3-0.6 0-1.1 0.5-1.1 0.5zm-18.7-34.9l15.5 15.9 14.9-47-4.2-5.3z"/>
	<path id="&lt;Compound Path&gt;" fill-rule="evenodd" class="s0" d="m175.1 288.7q-0.8 0-1.6 0c-2.1-0.5-4.3-2.1-4.8-4.2l-20.8-61.3c-0.6-2.1-0.6-4.2 1-6.3l11.3-14.2c1-1.6 3.2-2.7 5.3-2.7 2.1 0 4.3 1.1 5.3 2.7l35.8 48c2.1 2.6 1.6 6.3-0.5 8.4l-26.2 27.5c-1.6 1-3.2 2.1-4.8 2.1zm-13.3-66.5l16 47.5 14.9-15.3-27.2-37z"/>
	<path id="&lt;Compound Path&gt;" fill-rule="evenodd" class="s0" d="m201.8 202.1c-18.7 0-35.8-12.6-48.1-35.3-9.6-17.5-15.4-40.2-15.4-58.1 0-4.2 0.5-9 1.6-13.2 0.5-2.1 2.1-4.2 4.2-4.7 2.2-0.6 4.8-0.6 6.4 1 1.6 1.6 4.9 3.2 8.6 3.2h63c3.2 0 5.9-1.6 7.5-4.8 1.6-3.1 5.3-4.7 9-3.1l21.4 10c2.7 0.5 4.8 2.1 5.3 4.7 0.6 2.7 1.1 4.8 1.1 6.9 0 17.9-5.9 40.6-15.5 58.1-13.3 22.7-30.4 35.3-49.1 35.3zm-50.2-95.5c0 0.5 0 1.6 0 2.1 0 15.8 5.4 36.4 13.9 51.7 6.9 12.7 19.2 28 36.3 28 17.1 0 29.4-15.3 36.3-28 8.6-15.8 13.9-35.9 13.9-51.7 0 0 0 0 0-0.5l-15-7.4c-4.2 4.2-9.6 6.8-15.4 6.8h-63c-2.7 0-4.9-0.5-7-1z"/>
	<path id="&lt;Compound Path&gt;" fill-rule="evenodd" class="s0" d="m258.4 110.3c-1.1 0-2.1 0-2.7-0.5l-18.1-8.5c-4.3 4.2-9.6 6.9-15.5 6.9h-63.5c-5.9 0-11.8-2.1-16.6-5.8-8-5.8-12.8-15.9-12.8-25.4v-22.1c0-3.7 3.2-6.9 6.9-6.9h83.9c9.6 0 16.5 6.9 20.2 13.2 0.6 1.1 1.1 1.6 1.6 2.1l21.9 19.5c1.6 1.1 2.2 3.2 2.2 4.8l-0.6 15.8c0 2.1-1 4.2-3.2 5.3-1.6 1.1-2.6 1.6-3.7 1.6zm-115.9-49.1v15.8c0 5.3 3.2 11.1 7.5 14.8 1.6 1.6 4.8 3.2 8.6 3.2h63c3.2 0 5.8-1.6 7.4-4.8 1.6-3.1 5.4-4.7 9.1-3.1l13.9 6.8v-2.6l-20.8-19c-1.1-0.5-1.6-1.6-1.6-2.7v-0.5c0-0.5-0.6-0.5-0.6-1-1.6-3.2-5.3-6.9-8.5-6.9z"/>
	<path id="&lt;Path&gt;" class="s0" d="m226.4 134h-7.5c-3.7 0-7-3.1-7-6.8 0-3.7 3.3-6.9 7-6.9h7.5c3.7 0 6.9 3.2 6.9 6.9-0.5 3.7-3.2 6.8-6.9 6.8z"/>
	<path id="&lt;Path&gt;" class="s0" d="m182 134h-7.4c-3.8 0-7-3.1-7-6.8 0-3.7 3.2-6.9 7-6.9h7.4c3.8 0 7 3.2 7 6.9-0.5 3.7-3.2 6.8-7 6.8z"/>
	<path id="&lt;Path&gt;" class="s0" d="m201.8 351.5c-1.6 0-3.2-0.5-4.8-2.1l-20.3-20.1c-1.6-1.6-2.1-4.2-1.6-6.3l20.3-66c1.1-3.7 4.8-5.3 8.5-4.2 3.8 1 5.4 4.7 4.3 8.4l-18.7 62.3 17.1 16.9c2.7 2.6 2.7 6.9 0 9.5-1.6 0.5-3.2 1.6-4.8 1.6z"/>
	<path id="&lt;Path&gt;" class="s0" d="m201.8 351.5c-1.6 0-3.2-0.5-4.8-2.1-2.7-2.7-2.7-6.9 0-9.5l17.1-16.9-18.7-62.3c-1.1-3.7 1.1-7.4 4.3-8.4 3.7-1.1 7.4 1 8.5 4.2l20.3 66c0.5 2.1 0 4.7-1.6 6.3l-20.3 20.1c-1.6 1.5-3.2 2.6-4.8 2.6z"/>
</svg>