<svg version="1.2" xmlns="http://www.w3.org/2000/svg" viewBox="0 0 400 400" width="400" height="400">
	<title>New Project</title>
	<style>
		.s0 { fill: #000000 } 
	</style>
	<path id="&lt;Compound Path&gt;" fill-rule="evenodd" class="s0" d="m290.3 330.9h-142.7c-3.1 0-5.7-2.6-5.7-5.7v-227.4c0-3.1 2.6-5.7 5.7-5.7h142.7c3 0 5.7 2.6 5.7 5.7v227.9c0 2.6-2.7 5.2-5.7 5.2zm-137-227.9v217h131.7v-217z"/>
	<path id="&lt;Compound Path&gt;" fill-rule="evenodd" class="s0" d="m268.3 103h-98.8c-3.1 0-5.7-2.6-5.7-5.7v-21.7c0-3 2.6-5.6 5.7-5.6h98.8c3.1 0 5.7 2.6 5.7 5.6v21.7c0 3.1-2.6 5.7-5.7 5.7zm-93.1-21.7v10.8h87.8v-10.8z"/>
	<path id="&lt;Compound Path&gt;" fill-rule="evenodd" class="s0" d="m147.6 330.9h-65.9c-3.1 0-5.7-2.6-5.7-5.7v-173.6c0-3 2.6-5.6 5.7-5.6h65.9c3 0 5.7 2.6 5.7 5.6v173.6c0 3.1-2.7 5.7-5.7 5.7zm-60.2-173.7v162.8h54.9v-162.8z"/>
	<path id="&lt;Compound Path&gt;" fill-rule="evenodd" class="s0" d="m317.9 330.9h-27.6c-3.1 0-5.7-2.6-5.7-5.7v-162.3c0-2.2 1.3-3.9 3-4.8 1.8-0.9 4-0.9 5.7 0.4l27.7 21.3c1.3 0.9 2.2 2.6 2.2 4.4v141.5c0 2.6-2.6 5.2-5.3 5.2zm-5.7-10.9v-133.2l-16.7-12.6v145.8z"/>
	<path id="&lt;Path&gt;" fill-rule="evenodd" class="s0" d="m180.5 113.8v10.9h-11v-10.9z"/>
	<path id="&lt;Path&gt;" fill-rule="evenodd" class="s0" d="m202.5 113.8v10.9h-11v-10.9z"/>
	<path id="&lt;Path&gt;" fill-rule="evenodd" class="s0" d="m224.4 113.8v10.9h-11v-10.9z"/>
	<path id="&lt;Path&gt;" fill-rule="evenodd" class="s0" d="m246.4 113.8v10.9h-11v-10.9z"/>
	<path id="&lt;Path&gt;" fill-rule="evenodd" class="s0" d="m268.3 113.8v10.9h-11v-10.9z"/>
	<path id="&lt;Path&gt;" fill-rule="evenodd" class="s0" d="m180.5 135.5v10.9h-11v-10.9z"/>
	<path id="&lt;Path&gt;" fill-rule="evenodd" class="s0" d="m202.5 135.5v10.9h-11v-10.9z"/>
	<path id="&lt;Path&gt;" fill-rule="evenodd" class="s0" d="m224.4 135.5v10.9h-11v-10.9z"/>
	<path id="&lt;Path&gt;" fill-rule="evenodd" class="s0" d="m246.4 135.5v10.9h-11v-10.9z"/>
	<path id="&lt;Path&gt;" fill-rule="evenodd" class="s0" d="m268.3 135.5v10.9h-11v-10.9z"/>
	<path id="&lt;Path&gt;" fill-rule="evenodd" class="s0" d="m180.5 157.2v10.9h-11v-10.9z"/>
	<path id="&lt;Path&gt;" fill-rule="evenodd" class="s0" d="m202.5 157.2v10.9h-11v-10.9z"/>
	<path id="&lt;Path&gt;" fill-rule="evenodd" class="s0" d="m224.4 157.2v10.9h-11v-10.9z"/>
	<path id="&lt;Path&gt;" fill-rule="evenodd" class="s0" d="m246.4 157.2v10.9h-11v-10.9z"/>
	<path id="&lt;Path&gt;" fill-rule="evenodd" class="s0" d="m268.3 157.2v10.9h-11v-10.9z"/>
	<path id="&lt;Path&gt;" fill-rule="evenodd" class="s0" d="m180.5 178.9v10.9h-11v-10.9z"/>
	<path id="&lt;Path&gt;" fill-rule="evenodd" class="s0" d="m202.5 178.9v10.9h-11v-10.9z"/>
	<path id="&lt;Path&gt;" fill-rule="evenodd" class="s0" d="m224.4 178.9v10.9h-11v-10.9z"/>
	<path id="&lt;Path&gt;" fill-rule="evenodd" class="s0" d="m246.4 178.9v10.9h-11v-10.9z"/>
	<path id="&lt;Path&gt;" fill-rule="evenodd" class="s0" d="m268.3 178.9v10.9h-11v-10.9z"/>
	<path id="&lt;Path&gt;" fill-rule="evenodd" class="s0" d="m180.5 200.6v10.9h-11v-10.9z"/>
	<path id="&lt;Path&gt;" fill-rule="evenodd" class="s0" d="m202.5 200.6v10.9h-11v-10.9z"/>
	<path id="&lt;Path&gt;" fill-rule="evenodd" class="s0" d="m224.4 200.6v10.9h-11v-10.9z"/>
	<path id="&lt;Path&gt;" fill-rule="evenodd" class="s0" d="m246.4 200.6v10.9h-11v-10.9z"/>
	<path id="&lt;Path&gt;" fill-rule="evenodd" class="s0" d="m268.3 200.6v10.9h-11v-10.9z"/>
	<path id="&lt;Path&gt;" fill-rule="evenodd" class="s0" d="m180.5 222.3v10.9h-11v-10.9z"/>
	<path id="&lt;Path&gt;" fill-rule="evenodd" class="s0" d="m202.5 222.3v10.9h-11v-10.9z"/>
	<path id="&lt;Path&gt;" fill-rule="evenodd" class="s0" d="m224.4 222.3v10.9h-11v-10.9z"/>
	<path id="&lt;Path&gt;" fill-rule="evenodd" class="s0" d="m246.4 222.3v10.9h-11v-10.9z"/>
	<path id="&lt;Path&gt;" fill-rule="evenodd" class="s0" d="m268.3 222.3v10.9h-11v-10.9z"/>
	<path id="&lt;Path&gt;" fill-rule="evenodd" class="s0" d="m180.5 244.1v10.8h-11v-10.8z"/>
	<path id="&lt;Path&gt;" fill-rule="evenodd" class="s0" d="m202.5 244.1v10.8h-11v-10.8z"/>
	<path id="&lt;Path&gt;" fill-rule="evenodd" class="s0" d="m224.4 244.1v10.8h-11v-10.8z"/>
	<path id="&lt;Path&gt;" fill-rule="evenodd" class="s0" d="m246.4 244.1v10.8h-11v-10.8z"/>
	<path id="&lt;Path&gt;" fill-rule="evenodd" class="s0" d="m268.3 244.1v10.8h-11v-10.8z"/>
	<path id="&lt;Compound Path&gt;" fill-rule="evenodd" class="s0" d="m241.1 330.9h-43.9c-3.1 0-5.7-2.6-5.7-5.7v-53.8c0-3 2.6-5.6 5.7-5.6h43.9c3.1 0 5.7 2.6 5.7 5.6v54.3c-0.4 2.6-3.1 5.2-5.7 5.2zm-38.6-54.3v43.4h32.9v-43.4z"/>
	<path id="&lt;Path&gt;" class="s0" d="m103.7 330.9c-3.1 0-5.7-2.6-5.7-5.7v-108.5c0-3 2.6-5.6 5.7-5.6 3 0 5.7 2.6 5.7 5.6v108.5c0 3.1-2.7 5.7-5.7 5.7z"/>
	<path id="&lt;Path&gt;" class="s0" d="m125.6 330.9c-3.1 0-5.7-2.6-5.7-5.7v-108.5c0-3 2.6-5.6 5.7-5.6 3.1 0 5.7 2.6 5.7 5.6v108.5c0 3.1-2.6 5.7-5.7 5.7z"/>
	<path id="&lt;Path&gt;" class="s0" d="m147.6 141.2h-43.9c-3.1 0-5.7-2.6-5.7-5.7 0-3 2.6-5.6 5.7-5.6h43.9c3 0 5.7 2.6 5.7 5.6 0 3.1-2.7 5.7-5.7 5.7z"/>
	<path id="&lt;Path&gt;" class="s0" d="m87.4 141.2c-0.4 0-0.9 0-0.9 0-0.4 0-0.8 0-0.8-0.5-0.5 0-0.5-0.4-0.9-0.4-0.5 0-0.5-0.4-0.9-0.9-0.4-0.4-0.4-0.4-0.9-0.8 0-0.5-0.4-0.5-0.4-0.9 0-0.4-0.5-0.9-0.5-0.9 0-0.4 0-0.8 0-0.8 0-1.3 0.5-3.1 1.8-3.9 0.4-0.5 0.4-0.5 0.9-0.9 0.4 0 0.4-0.4 0.9-0.4 0.4 0 0.8-0.5 0.8-0.5 0.9 0 1.4 0 2.2 0 0.5 0 0.9 0 0.9 0.5 0.4 0 0.4 0.4 0.9 0.4 0.4 0 0.4 0.4 0.9 0.9 0.8 0.8 1.7 2.6 1.7 3.9 0 0.4 0 0.8 0 0.8 0 0.5 0 0.9-0.4 0.9 0 0.4-0.5 0.4-0.5 0.9 0 0.4-0.4 0.4-0.8 0.8-0.5 0.5-0.5 0.5-0.9 0.9-0.5 0-0.5 0.4-0.9 0.4-0.4 0-0.9 0.5-0.9 0.5-0.8-0.5-1.3 0-1.3 0z"/>
	<path id="&lt;Path&gt;" class="s0" d="m131.3 178.9h-49.6c-3.1 0-5.7-2.6-5.7-5.6 0-3 2.6-5.6 5.7-5.6h49.6c3.1 0 5.7 2.6 5.7 5.6-0.4 3-3 5.6-5.7 5.6z"/>
	<path id="&lt;Path&gt;" class="s0" d="m197.2 304h-49.6c-3.1 0-5.7-2.7-5.7-5.7 0-3 2.6-5.6 5.7-5.6h49.6c3.1 0 5.7 2.6 5.7 5.6-0.4 3-3.1 5.7-5.7 5.7z"/>
	<path id="&lt;Path&gt;" class="s0" d="m290.3 304h-49.2c-3.1 0-5.7-2.7-5.7-5.7 0-3 2.6-5.6 5.7-5.6h49.2c3 0 5.7 2.6 5.7 5.6 0 3-2.7 5.7-5.7 5.7z"/>
</svg>